# xmcd CD database file
#
# Track frame offsets:
#	182
#	11767
#	22532
#	34742
#	48247
#	61495
#	73932
#	84532
#	97942
#	113112
#	124797
#	136827
#	147387
#	161012
#	177627
#	190952
#
# Disc length: 2680 seconds
#
# Revision: 0
# Processed by: cddbd v1.4b41PL1 Copyright (c) Steve Scherf et al.
# Submitted via: Feurio! 1.61 - http://www.feurio.com
#
DISCID=da0a7610
DTITLE=Tom Astor - Das Doppelabum CD2
DYEAR=1900
DGENRE=
TTITLE0=Freunde
TTITLE1=Ja das sind Stunden
TTITLE2=Trucker sind Partner
TTITLE3=Alter, Freund überhol dich nicht selber
TTITLE4=Ich bin ein undressierter Mann
TTITLE5=Ich bin dafür, das wir dagegen sind
TTITLE6=Irgendwo
TTITLE7=Denn der Sieger heißt Heimweh
TTITLE8=Du, das mag ich
TTITLE9=Ja, dann ist Sommer
TTITLE10=Ich brauch' eine kleine Dosis Freiheit
TTITLE11=Higway Helden
TTITLE12=Sie ist wie ein neues Leben
TTITLE13=5 vor 12
TTITLE14=Joe Einsam
TTITLE15=Adios Amigo
EXTD=
EXTT0=
EXTT1=
EXTT2=
EXTT3=
EXTT4=
EXTT5=
EXTT6=
EXTT7=
EXTT8=
EXTT9=
EXTT10=
EXTT11=
EXTT12=
EXTT13=
EXTT14=
EXTT15=
PLAYORDER=
